<svg width="1920" height="564" viewBox="0 0 1920 564" fill="none" xmlns="http://www.w3.org/2000/svg">
<path d="M0 83.368C106.666 80.3919 213.332 77.4089 319.998 57.7323C426.664 38.0556 533.336 1.67166 640.002 0.0570239C746.668 -1.55761 853.334 31.5971 960 38.5072C1066.67 45.4173 1173.33 26.069 1280 25.6928C1386.66 25.3096 1493.34 43.8916 1600 64.1429C1706.67 84.3874 1813.33 106.308 1920 128.222V563.995C1813.33 563.995 1706.67 563.995 1600 563.995C1493.34 563.995 1386.66 563.995 1280 563.995C1173.33 563.995 1066.67 563.995 960 563.995C853.334 563.995 746.668 563.995 640.002 563.995C533.336 563.995 426.664 563.995 319.998 563.995C213.332 563.995 106.666 563.995 0 563.995V83.368Z" fill="#F05644" fill-opacity="0.2"/>
<path d="M0 38.503C106.666 41.6502 213.332 44.8042 319.998 70.5425C426.664 96.2877 533.336 144.624 640.002 166.668C746.668 188.719 853.334 184.47 960 173.079C1066.67 161.687 1173.33 143.146 1280 108.993C1386.66 74.8459 1493.34 25.0865 1600 32.0924C1706.67 39.1051 1813.33 102.89 1920 166.668V563.991C1813.33 563.991 1706.67 563.991 1600 563.991C1493.34 563.991 1386.66 563.991 1280 563.991C1173.33 563.991 1066.67 563.991 960 563.991C853.334 563.991 746.668 563.991 640.002 563.991C533.336 563.991 426.664 563.991 319.998 563.991C213.332 563.991 106.666 563.991 0 563.991V38.503Z" fill="#F05644" fill-opacity="0.2"/>
<path d="M0 192.312C106.666 167.011 213.332 141.711 319.998 121.822C426.664 101.933 533.336 87.4564 640.002 96.1863C746.668 104.916 853.334 136.846 960 166.676C1066.67 196.513 1173.33 224.255 1280 217.947C1386.66 211.639 1493.34 171.287 1600 153.862C1706.67 136.436 1813.33 141.943 1920 147.451V563.999C1813.33 563.999 1706.67 563.999 1600 563.999C1493.34 563.999 1386.66 563.999 1280 563.999C1173.33 563.999 1066.67 563.999 960 563.999C853.334 563.999 746.668 563.999 640.002 563.999C533.336 563.999 426.664 563.999 319.998 563.999C213.332 563.999 106.666 563.999 0 563.999V192.312Z" fill="#F05644" fill-opacity="0.2"/>
<path d="M0 237.159C106.666 217.38 213.332 197.601 319.998 192.298C426.664 186.996 533.336 196.171 640.002 179.484C746.668 162.79 853.334 120.242 960 134.623C1066.67 149.004 1173.33 220.329 1280 230.748C1386.66 241.168 1493.34 190.697 1600 166.663C1706.67 142.628 1813.33 145.036 1920 147.437V563.985C1813.33 563.985 1706.67 563.985 1600 563.985C1493.34 563.985 1386.66 563.985 1280 563.985C1173.33 563.985 1066.67 563.985 960 563.985C853.334 563.985 746.668 563.985 640.002 563.985C533.336 563.985 426.664 563.985 319.998 563.985C213.332 563.985 106.666 563.985 0 563.985V237.159Z" fill="#F05644" fill-opacity="0.2"/>
<path d="M0 217.935C106.666 257.028 213.332 296.122 319.998 288.425C426.664 280.728 533.336 226.248 640.002 217.935C746.668 209.622 853.334 247.484 960 243.564C1066.67 239.65 1173.33 193.955 1280 198.71C1386.66 203.458 1493.34 258.657 1600 262.789C1706.67 266.928 1813.33 220.001 1920 173.074V563.987C1813.33 563.987 1706.67 563.987 1600 563.987C1493.34 563.987 1386.66 563.987 1280 563.987C1173.33 563.987 1066.67 563.987 960 563.987C853.334 563.987 746.668 563.987 640.002 563.987C533.336 563.987 426.664 563.987 319.998 563.987C213.332 563.987 106.666 563.987 0 563.987V217.935Z" fill="#F05644" fill-opacity="0.2"/>
<path d="M0 262.79C106.666 225.934 213.332 189.071 319.998 185.889C426.664 182.708 533.336 213.201 640.002 243.565C746.668 273.928 853.334 304.161 960 294.836C1066.67 285.504 1173.33 236.62 1280 237.161C1386.66 237.701 1493.34 287.666 1600 294.836C1706.67 302.006 1813.33 266.375 1920 230.75V563.987C1813.33 563.987 1706.67 563.987 1600 563.987C1493.34 563.987 1386.66 563.987 1280 563.987C1173.33 563.987 1066.67 563.987 960 563.987C853.334 563.987 746.668 563.987 640.002 563.987C533.336 563.987 426.664 563.987 319.998 563.987C213.332 563.987 106.666 563.987 0 563.987V262.79Z" fill="#F05644" fill-opacity="0.2"/>
<path d="M0 275.614C106.666 261.842 213.332 248.077 319.998 256.389C426.664 264.695 533.336 295.079 640.002 288.429C746.668 281.779 853.334 238.088 960 243.568C1066.67 249.055 1173.33 303.706 1280 333.29C1386.66 362.866 1493.34 367.375 1600 358.918C1706.67 350.469 1813.33 329.061 1920 307.654V563.991C1813.33 563.991 1706.67 563.991 1600 563.991C1493.34 563.991 1386.66 563.991 1280 563.991C1173.33 563.991 1066.67 563.991 960 563.991C853.334 563.991 746.668 563.991 640.002 563.991C533.336 563.991 426.664 563.991 319.998 563.991C213.332 563.991 106.666 563.991 0 563.991V275.614Z" fill="#F05644" fill-opacity="0.2"/>
<path d="M0 262.789C106.666 274.591 213.332 286.386 319.998 314.061C426.664 341.728 533.336 385.275 640.002 371.736C746.668 358.196 853.334 287.57 960 282.014C1066.67 276.466 1173.33 335.981 1280 365.325C1386.66 394.669 1493.34 393.848 1600 390.961C1706.67 388.067 1813.33 383.107 1920 378.14V563.987C1813.33 563.987 1706.67 563.987 1600 563.987C1493.34 563.987 1386.66 563.987 1280 563.987C1173.33 563.987 1066.67 563.987 960 563.987C853.334 563.987 746.668 563.987 640.002 563.987C533.336 563.987 426.664 563.987 319.998 563.987C213.332 563.987 106.666 563.987 0 563.987V262.789Z" fill="#F05644" fill-opacity="0.2"/>
<path d="M0 448.633C106.666 456.904 213.332 465.176 319.998 448.633C426.664 432.083 533.336 390.718 640.002 384.547C746.668 378.375 853.334 407.405 960 410.182C1066.67 412.96 1173.33 389.486 1280 371.732C1386.66 353.978 1493.34 341.937 1600 352.507C1706.67 363.071 1813.33 396.239 1920 429.407V563.983C1813.33 563.983 1706.67 563.983 1600 563.983C1493.34 563.983 1386.66 563.983 1280 563.983C1173.33 563.983 1066.67 563.983 960 563.983C853.334 563.983 746.668 563.983 640.002 563.983C533.336 563.983 426.664 563.983 319.998 563.983C213.332 563.983 106.666 563.983 0 563.983V448.633Z" fill="#F05644" fill-opacity="0.2"/>
<path d="M0 365.336C106.666 370.768 213.332 376.201 319.998 390.972C426.664 405.736 533.336 429.839 640.002 442.236C746.668 454.633 853.334 455.338 960 461.461C1066.67 467.585 1173.33 479.133 1280 487.097C1386.66 495.061 1493.34 499.439 1600 480.686C1706.67 461.933 1813.33 420.042 1920 378.15V563.997C1813.33 563.997 1706.67 563.997 1600 563.997C1493.34 563.997 1386.66 563.997 1280 563.997C1173.33 563.997 1066.67 563.997 960 563.997C853.334 563.997 746.668 563.997 640.002 563.997C533.336 563.997 426.664 563.997 319.998 563.997C213.332 563.997 106.666 563.997 0 563.997V365.336Z" fill="#F05644" fill-opacity="0.2"/>
</svg>
